<?xml version="1.0" encoding="utf-8"?>
<svg width="229px" height="233px" viewBox="0 0 229 233" version="1.1" xmlns:xlink="http://www.w3.org/1999/xlink" xmlns="http://www.w3.org/2000/svg">
  <desc>Created with Lunacy</desc>
  <g id="Group" transform="translate(14.5 14.5)">
    <path d="M0 100C0 44.7715 44.7715 0 100 0C155.228 0 200 44.7715 200 100C200 155.228 155.228 200 100 200C44.7715 200 0 155.228 0 100Z" id="Ellipse" fill="#D3D3D3" fill-opacity="0" stroke="#828282" stroke-width="29" />
    <path d="M43.999 0L70.001 0Q71.0811 0 72.1599 0.0529987Q73.2387 0.105997 74.3136 0.211867Q75.3886 0.317737 76.457 0.476223Q77.5254 0.634708 78.5848 0.845428Q79.6441 1.05615 80.6919 1.31859Q81.7396 1.58104 82.7732 1.89458Q83.8068 2.20812 84.8238 2.572Q85.8408 2.93588 86.8387 3.34922Q87.8366 3.76257 88.813 4.22437Q89.7894 4.68618 90.742 5.19535Q91.6945 5.70451 92.621 6.2598Q93.5474 6.81509 94.4455 7.41517Q95.3436 8.01525 96.2112 8.65867Q97.0787 9.3021 97.9137 9.98731Q98.7486 10.6725 99.5489 11.3979Q100.349 12.1233 101.113 12.887Q101.877 13.6508 102.602 14.4511Q103.327 15.2514 104.013 16.0863Q104.698 16.9213 105.341 17.7888Q105.985 18.6564 106.585 19.5545Q107.185 20.4525 107.74 21.379Q108.295 22.3054 108.805 23.258Q109.314 24.2106 109.776 25.187Q110.237 26.1634 110.651 27.1613Q111.064 28.1592 111.428 29.1762Q111.792 30.1932 112.105 31.2268Q112.419 32.2604 112.681 33.3081Q112.944 34.3559 113.155 35.4152Q113.365 36.4746 113.524 37.543Q113.682 38.6114 113.788 39.6864Q113.894 40.7613 113.947 41.8401Q114 42.9189 114 43.999L114 60.001Q114 61.0811 113.947 62.1599Q113.894 63.2387 113.788 64.3136Q113.682 65.3886 113.524 66.457Q113.365 67.5254 113.155 68.5848Q112.944 69.6441 112.681 70.6919Q112.419 71.7396 112.105 72.7732Q111.792 73.8068 111.428 74.8238Q111.064 75.8408 110.651 76.8387Q110.237 77.8366 109.776 78.813Q109.314 79.7894 108.805 80.742Q108.295 81.6945 107.74 82.621Q107.185 83.5474 106.585 84.4455Q105.985 85.3436 105.341 86.2112Q104.698 87.0787 104.013 87.9137Q103.327 88.7486 102.602 89.5489Q101.877 90.3492 101.113 91.113Q100.349 91.8767 99.5489 92.6021Q98.7486 93.3275 97.9137 94.0127Q97.0787 94.6979 96.2112 95.3413Q95.3436 95.9847 94.4455 96.5848Q93.5474 97.1849 92.621 97.7402Q91.6945 98.2955 90.742 98.8046Q89.7894 99.3138 88.813 99.7756Q87.8366 100.237 86.8387 100.651Q85.8408 101.064 84.8238 101.428Q83.8068 101.792 82.7732 102.105Q81.7396 102.419 80.6919 102.681Q79.6441 102.944 78.5848 103.155Q77.5254 103.365 76.457 103.524Q75.3886 103.682 74.3137 103.788Q73.2387 103.894 72.1599 103.947Q71.0811 104 70.001 104L43.999 104Q42.9189 104 41.8401 103.947Q40.7613 103.894 39.6864 103.788Q38.6114 103.682 37.543 103.524Q36.4746 103.365 35.4152 103.155Q34.3559 102.944 33.3081 102.681Q32.2604 102.419 31.2268 102.105Q30.1932 101.792 29.1762 101.428Q28.1592 101.064 27.1613 100.651Q26.1634 100.237 25.187 99.7756Q24.2106 99.3138 23.258 98.8046Q22.3054 98.2955 21.379 97.7402Q20.4525 97.1849 19.5545 96.5848Q18.6564 95.9847 17.7888 95.3413Q16.9213 94.6979 16.0863 94.0127Q15.2514 93.3274 14.4511 92.6021Q13.6508 91.8767 12.887 91.113Q12.1233 90.3492 11.3979 89.5489Q10.6725 88.7486 9.98731 87.9137Q9.3021 87.0787 8.65867 86.2111Q8.01525 85.3436 7.41517 84.4455Q6.81509 83.5474 6.2598 82.621Q5.70451 81.6945 5.19535 80.742Q4.68618 79.7894 4.22437 78.813Q3.76257 77.8365 3.34922 76.8387Q2.93588 75.8408 2.572 74.8238Q2.20812 73.8068 1.89458 72.7732Q1.58104 71.7396 1.31859 70.6919Q1.05615 69.6441 0.845428 68.5848Q0.634708 67.5254 0.476223 66.457Q0.317737 65.3885 0.211867 64.3136Q0.105997 63.2387 0.0529987 62.1599Q0 61.0811 0 60.001L0 43.999Q0 42.9189 0.0529987 41.8401Q0.105997 40.7613 0.211867 39.6863Q0.317737 38.6114 0.476223 37.543Q0.634708 36.4746 0.845428 35.4152Q1.05615 34.3559 1.31859 33.3081Q1.58104 32.2604 1.89458 31.2268Q2.20812 30.1932 2.572 29.1762Q2.93588 28.1592 3.34922 27.1613Q3.76257 26.1634 4.22437 25.187Q4.68618 24.2106 5.19535 23.258Q5.70451 22.3054 6.2598 21.379Q6.81509 20.4525 7.41517 19.5545Q8.01525 18.6564 8.65867 17.7888Q9.3021 16.9213 9.98731 16.0863Q10.6725 15.2514 11.3979 14.4511Q12.1233 13.6508 12.887 12.887Q13.6508 12.1233 14.4511 11.3979Q15.2514 10.6725 16.0863 9.98731Q16.9213 9.3021 17.7888 8.65867Q18.6564 8.01525 19.5545 7.41517Q20.4525 6.81509 21.379 6.2598Q22.3054 5.70451 23.258 5.19535Q24.2106 4.68618 25.187 4.22437Q26.1634 3.76257 27.1613 3.34922Q28.1592 2.93588 29.1762 2.572Q30.1932 2.20812 31.2268 1.89458Q32.2604 1.58104 33.3081 1.31859Q34.3559 1.05615 35.4152 0.845428Q36.4746 0.634708 37.543 0.476223Q38.6114 0.317737 39.6863 0.211867Q40.7613 0.105997 41.8401 0.0529987Q42.9189 0 43.999 0L43.999 0Z" transform="translate(43 100)" id="Rectangle" fill="#828282" stroke="none" />
    <path d="M0 34C0 15.2223 15.2223 0 34 0C52.7777 0 68 15.2223 68 34C68 52.7777 52.7777 68 34 68C15.2223 68 0 52.7777 0 34Z" transform="translate(66 32)" id="Ellipse-2" fill="#828282" stroke="none" />
  </g>
</svg>
