<?xml version="1.0" encoding="utf-8"?>
<svg width="27px" height="20px" viewBox="0 0 271 201" version="1.1" xmlns:xlink="http://www.w3.org/1999/xlink" xmlns="http://www.w3.org/2000/svg">
  <desc>Created with Lunacy</desc>
  <g id="Group-2">
    <path class="svg_logo" d="M14.999 0L256.001 0Q256.369 0 256.737 0.0180669Q257.105 0.0361339 257.471 0.0722243Q257.838 0.108315 258.202 0.162341Q258.566 0.216368 258.927 0.288202Q259.288 0.360035 259.645 0.449501Q260.003 0.538968 260.355 0.645852Q260.707 0.752736 261.054 0.87678Q261.401 1.00082 261.741 1.14173Q262.081 1.28264 262.414 1.44006Q262.747 1.59749 263.071 1.77106Q263.396 1.94463 263.712 2.13393Q264.028 2.32322 264.334 2.52779Q264.64 2.73235 264.936 2.95169Q265.232 3.17103 265.516 3.40462Q265.801 3.6382 266.074 3.88547Q266.346 4.13274 266.607 4.39311Q266.867 4.65346 267.114 4.92629Q267.362 5.19911 267.595 5.48373Q267.829 5.76836 268.048 6.06411Q268.268 6.35985 268.472 6.666Q268.677 6.97215 268.866 7.28797Q269.055 7.60379 269.229 7.92852Q269.402 8.25325 269.56 8.5861Q269.717 8.91895 269.858 9.25913Q269.999 9.59931 270.123 9.94599Q270.247 10.2927 270.354 10.645Q270.461 10.9974 270.55 11.3545Q270.64 11.7117 270.712 12.0728Q270.784 12.434 270.838 12.7982Q270.892 13.1624 270.928 13.5288Q270.964 13.8953 270.982 14.263Q271 14.6308 271 14.999L271 15.001Q271 15.3692 270.982 15.737Q270.964 16.1047 270.928 16.4712Q270.892 16.8376 270.838 17.2018Q270.784 17.566 270.712 17.9272Q270.64 18.2883 270.55 18.6455Q270.461 19.0026 270.354 19.355Q270.247 19.7073 270.123 20.054Q269.999 20.4007 269.858 20.7409Q269.717 21.081 269.56 21.4139Q269.402 21.7467 269.229 22.0715Q269.055 22.3962 268.866 22.712Q268.677 23.0278 268.472 23.334Q268.268 23.6401 268.048 23.9359Q267.829 24.2316 267.595 24.5163Q267.362 24.8009 267.114 25.0737Q266.867 25.3465 266.607 25.6069Q266.346 25.8673 266.074 26.1145Q265.801 26.3618 265.516 26.5954Q265.232 26.829 264.936 27.0483Q264.64 27.2676 264.334 27.4722Q264.028 27.6768 263.712 27.8661Q263.396 28.0554 263.071 28.2289Q262.747 28.4025 262.414 28.5599Q262.081 28.7174 261.741 28.8583Q261.401 28.9992 261.054 29.1232Q260.707 29.2473 260.355 29.3541Q260.003 29.461 259.645 29.5505Q259.288 29.64 258.927 29.7118Q258.566 29.7836 258.202 29.8377Q257.838 29.8917 257.471 29.9278Q257.105 29.9639 256.737 29.9819Q256.369 30 256.001 30L14.999 30Q14.6308 30 14.263 29.9819Q13.8953 29.9639 13.5288 29.9278Q13.1624 29.8917 12.7982 29.8377Q12.434 29.7836 12.0728 29.7118Q11.7117 29.64 11.3545 29.5505Q10.9974 29.461 10.645 29.3541Q10.2927 29.2473 9.94599 29.1232Q9.59931 28.9992 9.25913 28.8583Q8.91895 28.7174 8.5861 28.5599Q8.25325 28.4025 7.92852 28.2289Q7.60379 28.0554 7.28797 27.8661Q6.97215 27.6768 6.666 27.4722Q6.35985 27.2676 6.06411 27.0483Q5.76836 26.829 5.48373 26.5954Q5.19911 26.3618 4.92629 26.1145Q4.65346 25.8673 4.39311 25.6069Q4.13274 25.3465 3.88547 25.0737Q3.6382 24.8009 3.40462 24.5163Q3.17103 24.2316 2.95169 23.9359Q2.73235 23.6401 2.52779 23.334Q2.32322 23.0278 2.13393 22.712Q1.94463 22.3962 1.77106 22.0715Q1.59749 21.7467 1.44006 21.4139Q1.28264 21.081 1.14173 20.7409Q1.00082 20.4007 0.87678 20.054Q0.752736 19.7073 0.645852 19.355Q0.538968 19.0026 0.449501 18.6455Q0.360035 18.2883 0.288202 17.9272Q0.216368 17.566 0.162341 17.2018Q0.108315 16.8376 0.0722243 16.4712Q0.0361339 16.1047 0.0180669 15.737Q0 15.3692 0 15.001L0 14.999Q0 14.6308 0.0180669 14.263Q0.0361339 13.8953 0.0722243 13.5288Q0.108315 13.1624 0.162341 12.7982Q0.216368 12.434 0.288202 12.0728Q0.360035 11.7117 0.449501 11.3545Q0.538968 10.9974 0.645852 10.645Q0.752736 10.2927 0.87678 9.94599Q1.00082 9.59931 1.14173 9.25913Q1.28264 8.91895 1.44006 8.5861Q1.59749 8.25325 1.77106 7.92852Q1.94463 7.60379 2.13393 7.28797Q2.32322 6.97215 2.52779 6.666Q2.73235 6.35985 2.95169 6.06411Q3.17103 5.76836 3.40462 5.48373Q3.6382 5.19911 3.88547 4.92629Q4.13274 4.65346 4.39311 4.39311Q4.65346 4.13274 4.92629 3.88547Q5.19911 3.6382 5.48373 3.40462Q5.76836 3.17103 6.06411 2.95169Q6.35985 2.73235 6.666 2.52779Q6.97215 2.32322 7.28797 2.13393Q7.60379 1.94463 7.92852 1.77106Q8.25325 1.59749 8.5861 1.44006Q8.91895 1.28264 9.25913 1.14173Q9.59931 1.00082 9.94599 0.87678Q10.2927 0.752736 10.645 0.645852Q10.9974 0.538968 11.3545 0.449501Q11.7117 0.360035 12.0728 0.288202Q12.434 0.216368 12.7982 0.162341Q13.1624 0.108315 13.5288 0.0722243Q13.8953 0.0361339 14.263 0.0180669Q14.6308 0 14.999 0L14.999 0Z" id="Rectangle" fill="#f8f8f8" stroke="none" />
    <path class="svg_logo" d="M14.999 0L256.001 0Q256.369 0 256.737 0.0180669Q257.105 0.0361339 257.471 0.0722243Q257.838 0.108315 258.202 0.162341Q258.566 0.216368 258.927 0.288202Q259.288 0.360035 259.645 0.449501Q260.003 0.538968 260.355 0.645852Q260.707 0.752736 261.054 0.87678Q261.401 1.00082 261.741 1.14173Q262.081 1.28264 262.414 1.44006Q262.747 1.59749 263.071 1.77106Q263.396 1.94463 263.712 2.13393Q264.028 2.32322 264.334 2.52779Q264.64 2.73235 264.936 2.95169Q265.232 3.17103 265.516 3.40462Q265.801 3.6382 266.074 3.88547Q266.346 4.13274 266.607 4.39311Q266.867 4.65346 267.114 4.92629Q267.362 5.19911 267.595 5.48373Q267.829 5.76836 268.048 6.06411Q268.268 6.35985 268.472 6.666Q268.677 6.97215 268.866 7.28797Q269.055 7.60379 269.229 7.92852Q269.402 8.25325 269.56 8.5861Q269.717 8.91895 269.858 9.25913Q269.999 9.59931 270.123 9.94599Q270.247 10.2927 270.354 10.645Q270.461 10.9974 270.55 11.3545Q270.64 11.7117 270.712 12.0728Q270.784 12.434 270.838 12.7982Q270.892 13.1624 270.928 13.5288Q270.964 13.8953 270.982 14.263Q271 14.6308 271 14.999L271 15.001Q271 15.3692 270.982 15.737Q270.964 16.1047 270.928 16.4712Q270.892 16.8376 270.838 17.2018Q270.784 17.566 270.712 17.9272Q270.64 18.2883 270.55 18.6455Q270.461 19.0026 270.354 19.355Q270.247 19.7073 270.123 20.054Q269.999 20.4007 269.858 20.7409Q269.717 21.081 269.56 21.4139Q269.402 21.7467 269.229 22.0715Q269.055 22.3962 268.866 22.712Q268.677 23.0278 268.472 23.334Q268.268 23.6401 268.048 23.9359Q267.829 24.2316 267.595 24.5163Q267.362 24.8009 267.114 25.0737Q266.867 25.3465 266.607 25.6069Q266.346 25.8673 266.074 26.1145Q265.801 26.3618 265.516 26.5954Q265.232 26.829 264.936 27.0483Q264.64 27.2676 264.334 27.4722Q264.028 27.6768 263.712 27.8661Q263.396 28.0554 263.071 28.2289Q262.747 28.4025 262.414 28.5599Q262.081 28.7174 261.741 28.8583Q261.401 28.9992 261.054 29.1232Q260.707 29.2473 260.355 29.3541Q260.003 29.461 259.645 29.5505Q259.288 29.64 258.927 29.7118Q258.566 29.7836 258.202 29.8377Q257.838 29.8917 257.471 29.9278Q257.105 29.9639 256.737 29.9819Q256.369 30 256.001 30L14.999 30Q14.6308 30 14.263 29.9819Q13.8953 29.9639 13.5288 29.9278Q13.1624 29.8917 12.7982 29.8377Q12.434 29.7836 12.0728 29.7118Q11.7117 29.64 11.3545 29.5505Q10.9974 29.461 10.645 29.3541Q10.2927 29.2473 9.94599 29.1232Q9.59931 28.9992 9.25913 28.8583Q8.91895 28.7174 8.5861 28.5599Q8.25325 28.4025 7.92852 28.2289Q7.60379 28.0554 7.28797 27.8661Q6.97215 27.6768 6.666 27.4722Q6.35985 27.2676 6.06411 27.0483Q5.76836 26.829 5.48373 26.5954Q5.19911 26.3618 4.92629 26.1145Q4.65346 25.8673 4.39311 25.6069Q4.13274 25.3465 3.88547 25.0737Q3.6382 24.8009 3.40462 24.5163Q3.17103 24.2316 2.95169 23.9359Q2.73235 23.6401 2.52779 23.334Q2.32322 23.0278 2.13393 22.712Q1.94463 22.3962 1.77106 22.0715Q1.59749 21.7467 1.44006 21.4139Q1.28264 21.081 1.14173 20.7409Q1.00082 20.4007 0.87678 20.054Q0.752736 19.7073 0.645852 19.355Q0.538968 19.0026 0.449501 18.6455Q0.360035 18.2883 0.288202 17.9272Q0.216368 17.566 0.162341 17.2018Q0.108315 16.8376 0.0722243 16.4712Q0.0361339 16.1047 0.0180669 15.737Q0 15.3692 0 15.001L0 14.999Q0 14.6308 0.0180669 14.263Q0.0361339 13.8953 0.0722243 13.5288Q0.108315 13.1624 0.162341 12.7982Q0.216368 12.434 0.288202 12.0728Q0.360035 11.7117 0.449501 11.3545Q0.538968 10.9974 0.645852 10.645Q0.752736 10.2927 0.87678 9.94599Q1.00082 9.59931 1.14173 9.25913Q1.28264 8.91895 1.44006 8.5861Q1.59749 8.25325 1.77106 7.92852Q1.94463 7.60379 2.13393 7.28797Q2.32322 6.97215 2.52779 6.666Q2.73235 6.35985 2.95169 6.06411Q3.17103 5.76836 3.40462 5.48373Q3.6382 5.19911 3.88547 4.92629Q4.13274 4.65346 4.39311 4.39311Q4.65346 4.13274 4.92629 3.88547Q5.19911 3.6382 5.48373 3.40462Q5.76836 3.17103 6.06411 2.95169Q6.35985 2.73235 6.666 2.52779Q6.97215 2.32322 7.28797 2.13393Q7.60379 1.94463 7.92852 1.77106Q8.25325 1.59749 8.5861 1.44006Q8.91895 1.28264 9.25913 1.14173Q9.59931 1.00082 9.94599 0.87678Q10.2927 0.752736 10.645 0.645852Q10.9974 0.538968 11.3545 0.449501Q11.7117 0.360035 12.0728 0.288202Q12.434 0.216368 12.7982 0.162341Q13.1624 0.108315 13.5288 0.0722243Q13.8953 0.0361339 14.263 0.0180669Q14.6308 0 14.999 0L14.999 0Z" transform="translate(0 171)" id="Rectangle-2" fill="#f8f8f8" stroke="none" />
    <path class="svg_logo" d="M14.999 0L256.001 0Q256.369 0 256.737 0.0180669Q257.105 0.0361339 257.471 0.0722243Q257.838 0.108315 258.202 0.162341Q258.566 0.216368 258.927 0.288202Q259.288 0.360035 259.645 0.449501Q260.003 0.538968 260.355 0.645852Q260.707 0.752736 261.054 0.87678Q261.401 1.00082 261.741 1.14173Q262.081 1.28264 262.414 1.44006Q262.747 1.59749 263.071 1.77106Q263.396 1.94463 263.712 2.13393Q264.028 2.32322 264.334 2.52779Q264.64 2.73235 264.936 2.95169Q265.232 3.17103 265.516 3.40462Q265.801 3.6382 266.074 3.88547Q266.346 4.13274 266.607 4.39311Q266.867 4.65346 267.114 4.92629Q267.362 5.19911 267.595 5.48373Q267.829 5.76836 268.048 6.06411Q268.268 6.35985 268.472 6.666Q268.677 6.97215 268.866 7.28797Q269.055 7.60379 269.229 7.92852Q269.402 8.25325 269.56 8.5861Q269.717 8.91895 269.858 9.25913Q269.999 9.59931 270.123 9.94599Q270.247 10.2927 270.354 10.645Q270.461 10.9974 270.55 11.3545Q270.64 11.7117 270.712 12.0728Q270.784 12.434 270.838 12.7982Q270.892 13.1624 270.928 13.5288Q270.964 13.8953 270.982 14.263Q271 14.6308 271 14.999L271 15.001Q271 15.3692 270.982 15.737Q270.964 16.1047 270.928 16.4712Q270.892 16.8376 270.838 17.2018Q270.784 17.566 270.712 17.9272Q270.64 18.2883 270.55 18.6455Q270.461 19.0026 270.354 19.355Q270.247 19.7073 270.123 20.054Q269.999 20.4007 269.858 20.7409Q269.717 21.081 269.56 21.4139Q269.402 21.7467 269.229 22.0715Q269.055 22.3962 268.866 22.712Q268.677 23.0278 268.472 23.334Q268.268 23.6401 268.048 23.9359Q267.829 24.2316 267.595 24.5163Q267.362 24.8009 267.114 25.0737Q266.867 25.3465 266.607 25.6069Q266.346 25.8673 266.074 26.1145Q265.801 26.3618 265.516 26.5954Q265.232 26.829 264.936 27.0483Q264.64 27.2676 264.334 27.4722Q264.028 27.6768 263.712 27.8661Q263.396 28.0554 263.071 28.2289Q262.747 28.4025 262.414 28.5599Q262.081 28.7174 261.741 28.8583Q261.401 28.9992 261.054 29.1232Q260.707 29.2473 260.355 29.3541Q260.003 29.461 259.645 29.5505Q259.288 29.64 258.927 29.7118Q258.566 29.7836 258.202 29.8377Q257.838 29.8917 257.471 29.9278Q257.105 29.9639 256.737 29.9819Q256.369 30 256.001 30L14.999 30Q14.6308 30 14.263 29.9819Q13.8953 29.9639 13.5288 29.9278Q13.1624 29.8917 12.7982 29.8377Q12.434 29.7836 12.0728 29.7118Q11.7117 29.64 11.3545 29.5505Q10.9974 29.461 10.645 29.3541Q10.2927 29.2473 9.94599 29.1232Q9.59931 28.9992 9.25913 28.8583Q8.91895 28.7174 8.5861 28.5599Q8.25325 28.4025 7.92852 28.2289Q7.60379 28.0554 7.28797 27.8661Q6.97215 27.6768 6.666 27.4722Q6.35985 27.2676 6.06411 27.0483Q5.76836 26.829 5.48373 26.5954Q5.19911 26.3618 4.92629 26.1145Q4.65346 25.8673 4.39311 25.6069Q4.13274 25.3465 3.88547 25.0737Q3.6382 24.8009 3.40462 24.5163Q3.17103 24.2316 2.95169 23.9359Q2.73235 23.6401 2.52779 23.334Q2.32322 23.0278 2.13393 22.712Q1.94463 22.3962 1.77106 22.0715Q1.59749 21.7467 1.44006 21.4139Q1.28264 21.081 1.14173 20.7409Q1.00082 20.4007 0.87678 20.054Q0.752736 19.7073 0.645852 19.355Q0.538968 19.0026 0.449501 18.6455Q0.360035 18.2883 0.288202 17.9272Q0.216368 17.566 0.162341 17.2018Q0.108315 16.8376 0.0722243 16.4712Q0.0361339 16.1047 0.0180669 15.737Q0 15.3692 0 15.001L0 14.999Q0 14.6308 0.0180669 14.263Q0.0361339 13.8953 0.0722243 13.5288Q0.108315 13.1624 0.162341 12.7982Q0.216368 12.434 0.288202 12.0728Q0.360035 11.7117 0.449501 11.3545Q0.538968 10.9974 0.645852 10.645Q0.752736 10.2927 0.87678 9.94599Q1.00082 9.59931 1.14173 9.25913Q1.28264 8.91895 1.44006 8.5861Q1.59749 8.25325 1.77106 7.92852Q1.94463 7.60379 2.13393 7.28797Q2.32322 6.97215 2.52779 6.666Q2.73235 6.35985 2.95169 6.06411Q3.17103 5.76836 3.40462 5.48373Q3.6382 5.19911 3.88547 4.92629Q4.13274 4.65346 4.39311 4.39311Q4.65346 4.13274 4.92629 3.88547Q5.19911 3.6382 5.48373 3.40462Q5.76836 3.17103 6.06411 2.95169Q6.35985 2.73235 6.666 2.52779Q6.97215 2.32322 7.28797 2.13393Q7.60379 1.94463 7.92852 1.77106Q8.25325 1.59749 8.5861 1.44006Q8.91895 1.28264 9.25913 1.14173Q9.59931 1.00082 9.94599 0.87678Q10.2927 0.752736 10.645 0.645852Q10.9974 0.538968 11.3545 0.449501Q11.7117 0.360035 12.0728 0.288202Q12.434 0.216368 12.7982 0.162341Q13.1624 0.108315 13.5288 0.0722243Q13.8953 0.0361339 14.263 0.0180669Q14.6308 0 14.999 0L14.999 0Z" transform="translate(0 86)" id="Rectangle-3" fill="#f8f8f8" stroke="none" />
  </g>
</svg>
