<svg width="630" height="150" xmlns="http://www.w3.org/2000/svg" xmlns:xlink="http://www.w3.org/1999/xlink" overflow="hidden"><defs><clipPath id="clip0"><path d="M362 263 992 263 992 488 362 488Z" fill-rule="evenodd" clip-rule="evenodd"/></clipPath></defs><g clip-path="url(#clip0)" transform="translate(-362 -263)"><text fill="#FFFFFF" font-family="Calibri,Calibri_MSFontService,sans-serif" font-weight="400" font-size="107" transform="translate(427.019 395)">coalisium</text><path d="M837 321C837 306.088 850.655 294 867.5 294 884.345 294 898 306.088 898 321 898 335.912 884.345 348 867.5 348 850.655 348 837 335.912 837 321Z" fill="#00B0F0" fill-rule="evenodd"/><path d="M867 339C867 330.163 874.835 323 884.5 323 894.165 323 902 330.163 902 339 902 347.837 894.165 355 884.5 355 874.835 355 867 347.837 867 339Z" fill="#00B0F0" fill-rule="evenodd"/><path d="M865 311.5C865 300.178 875.745 291 889 291 902.255 291 913 300.178 913 311.5 913 322.822 902.255 332 889 332 875.745 332 865 322.822 865 311.5Z" fill="#00B0F0" fill-rule="evenodd"/></g></svg>
